<svg xmlns="http://www.w3.org/2000/svg" xmlns:xlink="http://www.w3.org/1999/xlink" width="2174" zoomAndPan="magnify" viewBox="0 0 1630.5 990.749975" height="1321" preserveAspectRatio="xMidYMid meet" version="1.0"><defs><g/><clipPath id="3b379a5b71"><path d="M 0 0.0273438 L 1630 0.0273438 L 1630 990.472656 L 0 990.472656 Z M 0 0.0273438 " clip-rule="nonzero"/></clipPath><clipPath id="e5cd325495"><path d="M 442.070312 189.589844 L 1188 189.589844 L 1188 874.339844 L 442.070312 874.339844 Z M 442.070312 189.589844 " clip-rule="nonzero"/></clipPath><clipPath id="007891bb98"><path d="M 1351 32.28125 L 1450 32.28125 L 1450 346.53125 L 1351 346.53125 Z M 1351 32.28125 " clip-rule="nonzero"/></clipPath></defs><g clip-path="url(#3b379a5b71)"><path fill="#ffffff" d="M 0 0.0273438 L 1630.5 0.0273438 L 1630.5 998.277344 L 0 998.277344 Z M 0 0.0273438 " fill-opacity="1" fill-rule="nonzero"/><path fill="#ffffff" d="M 0 0.0273438 L 1630.5 0.0273438 L 1630.5 990.777344 L 0 990.777344 Z M 0 0.0273438 " fill-opacity="1" fill-rule="nonzero"/><path fill="#ffffff" d="M 0 0.0273438 L 1630.5 0.0273438 L 1630.5 990.777344 L 0 990.777344 Z M 0 0.0273438 " fill-opacity="1" fill-rule="nonzero"/></g><g clip-path="url(#e5cd325495)"><path fill="#000000" d="M 1180.359375 189.589844 L 450.035156 189.589844 C 445.835938 189.589844 442.429688 193 442.429688 197.199219 L 442.429688 866.734375 C 442.429688 870.933594 445.835938 874.339844 450.035156 874.339844 L 1180.359375 874.339844 C 1184.558594 874.339844 1187.964844 870.933594 1187.964844 866.734375 L 1187.964844 197.199219 C 1187.964844 193 1184.558594 189.589844 1180.359375 189.589844 Z M 1172.75 859.125 L 457.644531 859.125 L 457.644531 204.808594 L 1172.75 204.808594 Z M 1172.75 859.125 " fill-opacity="1" fill-rule="nonzero"/></g><path fill="#000000" d="M 627.230469 689.519531 C 628.722656 690.996094 630.667969 691.742188 632.617188 691.742188 C 634.5625 691.742188 636.511719 690.996094 638.003906 689.519531 L 790.152344 537.351562 C 793.121094 534.386719 793.121094 529.5625 790.152344 526.59375 L 638.003906 374.429688 C 635.035156 371.460938 630.210938 371.460938 627.246094 374.429688 C 624.277344 377.394531 624.277344 382.21875 627.246094 385.1875 L 774.011719 531.964844 L 627.246094 678.746094 C 624.265625 681.726562 624.265625 686.535156 627.230469 689.519531 Z M 627.230469 689.519531 " fill-opacity="1" fill-rule="nonzero"/><path fill="#000000" d="M 845.628906 691.742188 L 997.777344 691.742188 C 1001.976562 691.742188 1005.386719 688.332031 1005.386719 684.132812 C 1005.386719 679.933594 1001.976562 676.523438 997.777344 676.523438 L 845.628906 676.523438 C 841.429688 676.523438 838.019531 679.933594 838.019531 684.132812 C 838.019531 688.332031 841.429688 691.742188 845.628906 691.742188 Z M 845.628906 691.742188 " fill-opacity="1" fill-rule="nonzero"/><g clip-path="url(#007891bb98)"><path fill="#100f0d" d="M 1435.5 154.746094 C 1428.738281 168.722656 1420.578125 180.933594 1412.683594 192.742188 C 1387.894531 229.820312 1366.351562 262.042969 1400.0625 326.847656 C 1332.359375 273.472656 1364.464844 218.984375 1393.023438 170.515625 C 1396.207031 165.113281 1399.328125 159.824219 1402.226562 154.660156 C 1422.382812 118.769531 1407.898438 81.148438 1393.90625 57.664062 C 1418.878906 79.085938 1453.503906 117.535156 1435.5 154.746094 Z M 1376.058594 33.4375 C 1374.257812 32.292969 1371.894531 32.65625 1370.523438 34.28125 C 1369.148438 35.910156 1369.199219 38.300781 1370.632812 39.871094 C 1371.167969 40.457031 1423.753906 98.996094 1394.816406 150.511719 C 1391.945312 155.621094 1388.859375 160.859375 1385.703125 166.214844 C 1354.6875 218.847656 1316.089844 284.347656 1412.285156 345.878906 C 1412.992188 346.332031 1413.785156 346.546875 1414.578125 346.546875 C 1415.691406 346.546875 1416.796875 346.109375 1417.617188 345.265625 C 1419.027344 343.824219 1419.222656 341.589844 1418.089844 339.925781 L 1411.832031 330.710938 C 1374.578125 265.015625 1394.515625 235.199219 1419.75 197.453125 C 1427.804688 185.402344 1436.128906 172.945312 1443.152344 158.4375 C 1473.210938 96.304688 1380.035156 35.976562 1376.058594 33.4375 " fill-opacity="1" fill-rule="nonzero"/></g><path fill="#100f0d" d="M 1344.03125 144.40625 C 1327.929688 171.492188 1320.6875 196.902344 1317.769531 209.871094 C 1299.464844 185.921875 1301.449219 161.246094 1323.757812 128.941406 C 1336.601562 110.34375 1337.773438 92.621094 1335.214844 78.792969 C 1346.8125 96.40625 1357.464844 121.808594 1344.03125 144.40625 Z M 1323.183594 50.636719 C 1321.570312 49.109375 1319.050781 49.089844 1317.410156 50.574219 C 1315.761719 52.066406 1315.546875 54.574219 1316.910156 56.324219 C 1317.921875 57.621094 1341.355469 88.511719 1316.761719 124.125 C 1290.046875 162.8125 1290.164062 193.082031 1317.136719 222.265625 C 1317.957031 223.152344 1319.089844 223.628906 1320.257812 223.628906 C 1320.679688 223.628906 1321.109375 223.566406 1321.523438 223.4375 C 1323.089844 222.949219 1324.234375 221.605469 1324.460938 219.984375 C 1324.515625 219.640625 1329.585938 185.320312 1351.339844 148.738281 C 1378.179688 103.589844 1325.441406 52.78125 1323.183594 50.636719 " fill-opacity="1" fill-rule="nonzero"/><path fill="#100f0d" d="M 1471.953125 283.8125 C 1448.78125 256.582031 1463.355469 232.261719 1476.328125 210.59375 C 1479.417969 205.4375 1482.335938 200.566406 1484.621094 195.851562 C 1492.660156 179.265625 1490.28125 160.292969 1486.589844 146.738281 C 1509.742188 172.503906 1511.355469 195.988281 1492.691406 222.988281 C 1476.691406 246.125 1472.78125 270.308594 1471.953125 283.8125 Z M 1478.925781 127.355469 C 1477.394531 126.011719 1475.128906 125.9375 1473.523438 127.179688 C 1471.917969 128.421875 1471.410156 130.628906 1472.320312 132.441406 C 1472.492188 132.78125 1489.261719 166.792969 1476.976562 192.15625 C 1474.855469 196.53125 1472.03125 201.25 1469.039062 206.242188 C 1454.828125 229.964844 1435.363281 262.460938 1473.234375 297.328125 C 1474.039062 298.066406 1475.070312 298.449219 1476.113281 298.449219 C 1476.746094 298.449219 1477.375 298.308594 1477.964844 298.023438 C 1479.539062 297.265625 1480.480469 295.625 1480.351562 293.886719 C 1480.324219 293.539062 1478.015625 259.136719 1499.679688 227.8125 C 1531.351562 182.007812 1503.003906 148.542969 1478.925781 127.355469 " fill-opacity="1" fill-rule="nonzero"/><g fill="#000000" fill-opacity="1"><g transform="translate(877.096097, 579.081769)"><g><path d="M 22.207031 0 L 16.355469 -56.394531 L 5.992188 -56.394531 L 0.28125 0 L 8.105469 0 L 8.882812 -9.515625 L 12.828125 -9.515625 L 13.324219 0 Z M 12.335938 -18.117188 L 9.585938 -18.117188 L 11.207031 -37.359375 Z M 12.335938 -18.117188 "/></g></g></g><g fill="#000000" fill-opacity="1"><g transform="translate(899.581859, 579.081769)"><g><path d="M 30.453125 -41.589844 L 22.699219 -41.589844 L 20.796875 -20.65625 L 18.1875 -41.589844 L 12.195312 -41.589844 L 9.65625 -20.65625 L 7.753906 -41.589844 L 0 -41.589844 L 6.0625 0 L 12.125 0 L 14.875 -19.597656 L 17.550781 0 L 23.683594 0 Z M 30.453125 -41.589844 "/></g></g></g><g fill="#000000" fill-opacity="1"><g transform="translate(930.032788, 579.081769)"><g><path d="M 21.640625 0 C 20.582031 -2.890625 20.230469 -6.835938 20.230469 -8.601562 L 20.230469 -32.636719 C 20.230469 -37.996094 16.566406 -42.367188 11.277344 -42.367188 C 5.921875 -42.367188 1.621094 -37.996094 1.621094 -32.636719 L 1.621094 -28.550781 L 9.585938 -28.550781 L 9.585938 -33.554688 C 9.585938 -34.472656 9.9375 -35.246094 10.925781 -35.246094 C 11.84375 -35.246094 12.265625 -34.472656 12.265625 -33.554688 L 12.265625 -25.941406 C 5.640625 -21.359375 0.703125 -17.90625 0.703125 -11.984375 L 0.703125 -8.953125 C 0.703125 -3.382812 4.089844 0.703125 9.164062 0.703125 C 11.5625 0.703125 13.746094 -0.421875 14.664062 -2.328125 L 15.085938 0 Z M 12.265625 -8.386719 C 12.265625 -7.261719 11.703125 -6.34375 10.574219 -6.34375 C 9.375 -6.34375 8.882812 -7.261719 8.882812 -8.386719 L 8.882812 -13.605469 C 8.882812 -16.074219 10.082031 -16.988281 12.265625 -18.679688 Z M 12.265625 -8.386719 "/></g></g></g><g fill="#000000" fill-opacity="1"><g transform="translate(952.166106, 579.081769)"><g><path d="M 9.867188 -47.019531 L 9.867188 -56.394531 L 1.902344 -56.394531 L 1.902344 -47.019531 Z M 9.867188 0 L 9.867188 -41.589844 L 1.902344 -41.589844 L 1.902344 0 Z M 9.867188 0 "/></g></g></g><g fill="#000000" fill-opacity="1"><g transform="translate(963.937647, 579.081769)"><g><path d="M 20.089844 -10.363281 C 20.089844 -15.367188 16.214844 -19.527344 12.96875 -23.828125 C 9.726562 -28.125 8.742188 -29.253906 8.742188 -33.414062 C 8.742188 -34.328125 9.304688 -35.246094 10.574219 -35.246094 C 11.773438 -35.246094 12.476562 -34.328125 12.476562 -33.414062 L 12.476562 -28.550781 L 19.738281 -28.550781 L 19.738281 -32.636719 C 19.738281 -37.996094 15.789062 -42.367188 10.433594 -42.367188 C 5.429688 -42.367188 0.777344 -38.980469 0.777344 -31.226562 C 0.777344 -27 3.3125 -23.757812 5.851562 -20.511719 C 11.066406 -13.605469 12.125 -12.335938 12.125 -8.175781 C 12.125 -7.261719 11.417969 -6.132812 10.292969 -6.132812 C 9.09375 -6.132812 8.386719 -7.261719 8.386719 -8.175781 L 8.386719 -12.546875 L 1.128906 -12.546875 L 1.128906 -8.953125 C 1.128906 -3.59375 4.582031 0.703125 10.433594 0.703125 C 16.917969 0.703125 20.089844 -4.933594 20.089844 -10.363281 Z M 20.089844 -10.363281 "/></g></g></g></svg>