<svg xmlns="http://www.w3.org/2000/svg" xmlns:xlink="http://www.w3.org/1999/xlink" width="40" zoomAndPan="magnify" viewBox="0 0 30 30.000001" height="40" preserveAspectRatio="xMidYMid meet" version="1.0"><defs><clipPath id="b1071ce806"><path d="M 0.484375 0 L 29.515625 0 L 29.515625 29.03125 L 0.484375 29.03125 Z M 0.484375 0 " clip-rule="nonzero"/></clipPath><clipPath id="52f95ca32d"><path d="M 6.21875 15 L 16 15 L 16 27.582031 L 6.21875 27.582031 Z M 6.21875 15 " clip-rule="nonzero"/></clipPath><clipPath id="e5c9072781"><path d="M 14 15 L 23.636719 15 L 23.636719 27.582031 L 14 27.582031 Z M 14 15 " clip-rule="nonzero"/></clipPath><clipPath id="cb7bfb3faa"><path d="M 6.21875 2.902344 L 23.636719 2.902344 L 23.636719 21 L 6.21875 21 Z M 6.21875 2.902344 " clip-rule="nonzero"/></clipPath></defs><g clip-path="url(#b1071ce806)"><path fill="#ffffff" d="M 0.484375 0 L 29.515625 0 L 29.515625 36.289062 L 0.484375 36.289062 Z M 0.484375 0 " fill-opacity="1" fill-rule="nonzero"/><path fill="#ffffff" d="M 0.484375 0 L 29.515625 0 L 29.515625 29.03125 L 0.484375 29.03125 Z M 0.484375 0 " fill-opacity="1" fill-rule="nonzero"/><path fill="#000000" d="M 0.484375 0 L 29.515625 0 L 29.515625 29.03125 L 0.484375 29.03125 Z M 0.484375 0 " fill-opacity="1" fill-rule="nonzero"/></g><g clip-path="url(#52f95ca32d)"><path fill="#7c1515" d="M 10.328125 15.476562 L 6.332031 25.289062 C 6.246094 25.496094 6.472656 25.691406 6.667969 25.578125 L 9.746094 23.742188 C 9.8125 23.703125 9.878906 23.695312 9.953125 23.726562 C 10.023438 23.753906 10.070312 23.808594 10.089844 23.882812 L 11.007812 27.34375 C 11.066406 27.558594 11.367188 27.578125 11.449219 27.371094 L 15.449219 17.554688 C 15.507812 17.410156 15.464844 17.3125 15.320312 17.253906 L 10.632812 15.347656 C 10.488281 15.289062 10.386719 15.332031 10.328125 15.476562 Z M 10.328125 15.476562 " fill-opacity="1" fill-rule="nonzero"/></g><g clip-path="url(#e5c9072781)"><path fill="#b71515" d="M 19.53125 15.476562 L 23.527344 25.289062 C 23.613281 25.496094 23.382812 25.691406 23.191406 25.578125 L 20.113281 23.742188 C 20.046875 23.703125 19.980469 23.695312 19.90625 23.726562 C 19.835938 23.753906 19.789062 23.808594 19.769531 23.882812 L 18.847656 27.34375 C 18.792969 27.558594 18.492188 27.578125 18.40625 27.371094 L 14.410156 17.554688 C 14.351562 17.410156 14.394531 17.3125 14.539062 17.253906 L 19.226562 15.347656 C 19.371094 15.289062 19.472656 15.332031 19.53125 15.476562 Z M 19.53125 15.476562 " fill-opacity="1" fill-rule="nonzero"/></g><g clip-path="url(#cb7bfb3faa)"><path fill="#ffcd10" d="M 14.929688 20.464844 C 14.28125 20.464844 13.722656 19.757812 13.117188 19.617188 C 12.492188 19.476562 11.679688 19.867188 11.117188 19.59375 C 10.542969 19.316406 10.34375 18.4375 9.851562 18.042969 C 9.355469 17.648438 8.453125 17.652344 8.058594 17.15625 C 7.664062 16.664062 7.867188 15.789062 7.589844 15.214844 C 7.316406 14.652344 6.5 14.261719 6.359375 13.636719 C 6.21875 13.035156 6.78125 12.332031 6.78125 11.683594 C 6.78125 11.039062 6.21875 10.335938 6.359375 9.730469 C 6.5 9.105469 7.316406 8.71875 7.589844 8.15625 C 7.867188 7.582031 7.664062 6.707031 8.058594 6.214844 C 8.453125 5.71875 9.355469 5.722656 9.851562 5.324219 C 10.34375 4.933594 10.542969 4.054688 11.117188 3.777344 C 11.679688 3.503906 12.492188 3.894531 13.117188 3.75 C 13.722656 3.613281 14.28125 2.90625 14.929688 2.90625 C 15.578125 2.90625 16.136719 3.613281 16.742188 3.75 C 17.367188 3.894531 18.179688 3.503906 18.742188 3.777344 C 19.316406 4.054688 19.515625 4.933594 20.007812 5.324219 C 20.503906 5.722656 21.402344 5.71875 21.800781 6.214844 C 22.195312 6.707031 21.992188 7.582031 22.269531 8.15625 C 22.542969 8.71875 23.359375 9.105469 23.5 9.730469 C 23.640625 10.335938 23.078125 11.039062 23.078125 11.683594 C 23.078125 12.332031 23.640625 13.035156 23.5 13.636719 C 23.359375 14.261719 22.542969 14.652344 22.269531 15.214844 C 21.992188 15.789062 22.195312 16.664062 21.800781 17.15625 C 21.402344 17.652344 20.503906 17.648438 20.007812 18.042969 C 19.515625 18.4375 19.316406 19.316406 18.742188 19.59375 C 18.179688 19.867188 17.367188 19.476562 16.742188 19.617188 C 16.136719 19.757812 15.578125 20.464844 14.929688 20.464844 Z M 14.929688 20.464844 " fill-opacity="1" fill-rule="nonzero"/></g><path fill="#fcba00" d="M 22.003906 11.683594 C 22.003906 11.121094 22.578125 10.5 22.457031 9.96875 C 22.332031 9.421875 21.542969 9.113281 21.304688 8.617188 C 21.066406 8.117188 21.308594 7.308594 20.964844 6.878906 C 20.617188 6.445312 19.773438 6.503906 19.339844 6.160156 C 18.910156 5.816406 18.78125 4.980469 18.28125 4.738281 C 17.785156 4.5 17.050781 4.917969 16.503906 4.792969 C 15.976562 4.675781 15.496094 3.976562 14.929688 3.976562 C 14.363281 3.976562 13.882812 4.675781 13.355469 4.792969 C 12.808594 4.917969 12.074219 4.5 11.578125 4.738281 C 11.078125 4.980469 10.949219 5.816406 10.515625 6.160156 C 10.085938 6.503906 9.238281 6.445312 8.894531 6.878906 C 8.550781 7.308594 8.792969 8.117188 8.550781 8.617188 C 8.3125 9.113281 7.527344 9.421875 7.402344 9.96875 C 7.28125 10.5 7.851562 11.121094 7.851562 11.683594 C 7.851562 12.25 7.28125 12.871094 7.402344 13.402344 C 7.527344 13.945312 8.3125 14.257812 8.550781 14.75 C 8.792969 15.253906 8.550781 16.0625 8.894531 16.492188 C 9.238281 16.925781 10.085938 16.867188 10.515625 17.210938 C 10.949219 17.554688 11.078125 18.390625 11.578125 18.632812 C 12.074219 18.871094 12.808594 18.453125 13.355469 18.578125 C 13.882812 18.695312 14.363281 19.394531 14.929688 19.394531 C 15.496094 19.394531 15.976562 18.695312 16.503906 18.578125 C 17.050781 18.453125 17.785156 18.871094 18.28125 18.632812 C 18.78125 18.390625 18.910156 17.554688 19.339844 17.210938 C 19.773438 16.867188 20.617188 16.925781 20.964844 16.492188 C 21.308594 16.0625 21.066406 15.253906 21.304688 14.75 C 21.542969 14.257812 22.332031 13.945312 22.457031 13.402344 C 22.578125 12.871094 22.003906 12.25 22.003906 11.683594 Z M 22.003906 11.683594 " fill-opacity="1" fill-rule="nonzero"/><path fill="#ffe600" d="M 21.167969 11.683594 C 21.167969 12.09375 21.125 12.5 21.046875 12.902344 C 20.96875 13.300781 20.847656 13.691406 20.691406 14.070312 C 20.535156 14.445312 20.34375 14.804688 20.117188 15.144531 C 19.886719 15.484375 19.628906 15.800781 19.339844 16.089844 C 19.050781 16.378906 18.734375 16.636719 18.394531 16.863281 C 18.054688 17.089844 17.695312 17.285156 17.316406 17.441406 C 16.9375 17.597656 16.546875 17.714844 16.144531 17.792969 C 15.746094 17.875 15.339844 17.914062 14.929688 17.914062 C 14.519531 17.914062 14.113281 17.875 13.710938 17.792969 C 13.3125 17.714844 12.921875 17.597656 12.542969 17.441406 C 12.164062 17.285156 11.804688 17.089844 11.464844 16.863281 C 11.125 16.636719 10.808594 16.378906 10.519531 16.089844 C 10.230469 15.800781 9.96875 15.484375 9.742188 15.144531 C 9.515625 14.804688 9.324219 14.445312 9.167969 14.070312 C 9.011719 13.691406 8.890625 13.300781 8.8125 12.902344 C 8.730469 12.5 8.691406 12.09375 8.691406 11.683594 C 8.691406 11.277344 8.730469 10.871094 8.8125 10.46875 C 8.890625 10.070312 9.011719 9.679688 9.167969 9.300781 C 9.324219 8.921875 9.515625 8.566406 9.742188 8.226562 C 9.96875 7.882812 10.230469 7.570312 10.519531 7.28125 C 10.808594 6.992188 11.125 6.734375 11.464844 6.507812 C 11.804688 6.277344 12.164062 6.085938 12.542969 5.929688 C 12.921875 5.773438 13.3125 5.65625 13.710938 5.574219 C 14.113281 5.496094 14.519531 5.457031 14.929688 5.457031 C 15.339844 5.457031 15.746094 5.496094 16.144531 5.574219 C 16.546875 5.65625 16.9375 5.773438 17.316406 5.929688 C 17.695312 6.085938 18.054688 6.277344 18.394531 6.507812 C 18.734375 6.734375 19.050781 6.992188 19.339844 7.28125 C 19.628906 7.570312 19.886719 7.882812 20.117188 8.226562 C 20.34375 8.566406 20.535156 8.921875 20.691406 9.300781 C 20.847656 9.679688 20.96875 10.070312 21.046875 10.46875 C 21.125 10.871094 21.167969 11.277344 21.167969 11.683594 Z M 21.167969 11.683594 " fill-opacity="1" fill-rule="nonzero"/></svg>