<?xml version="1.0" standalone="no"?>
<!DOCTYPE svg PUBLIC "-//W3C//DTD SVG 20010904//EN"
 "http://www.w3.org/TR/2001/REC-SVG-20010904/DTD/svg10.dtd">
<svg version="1.0" xmlns="http://www.w3.org/2000/svg"
 width="192.000000pt" height="192.000000pt" viewBox="0 0 192.000000 192.000000"
 preserveAspectRatio="xMidYMid meet">

<g transform="translate(0.000000,192.000000) scale(0.100000,-0.100000)"
fill="#000000" stroke="none">
<path d="M850 1914 c-139 -18 -312 -84 -427 -162 -194 -132 -335 -334 -394
-567 -32 -126 -32 -321 -1 -449 71 -284 260 -516 524 -641 140 -66 244 -89
408 -89 164 0 268 23 408 89 306 145 504 423 543 760 55 473 -255 918 -721
1034 -83 21 -265 34 -340 25z m390 -339 c255 -94 392 -290 377 -540 -10 -160
-67 -286 -160 -352 -54 -39 -98 -53 -161 -53 -74 0 -118 16 -166 58 l-43 38
-26 -24 c-60 -57 -179 -82 -253 -53 -46 17 -106 80 -125 129 -25 65 -22 184 6
260 74 197 290 308 456 233 91 -40 124 -88 105 -147 -7 -19 -15 -34 -18 -34
-4 0 -18 -9 -32 -19 -19 -16 -22 -22 -12 -34 7 -8 17 -49 22 -91 18 -146 78
-186 157 -106 44 45 67 120 68 220 0 73 -4 94 -28 145 -69 149 -206 227 -396
226 -162 0 -277 -45 -377 -147 -99 -101 -148 -227 -148 -385 -1 -91 1 -99 37
-171 45 -92 112 -157 207 -202 64 -30 68 -31 219 -32 148 0 155 -1 172 -23 19
-23 24 -65 13 -96 -4 -9 -25 -26 -48 -38 -36 -19 -55 -22 -166 -21 -108 0
-136 4 -207 28 -97 32 -215 107 -273 174 -97 111 -149 278 -136 432 20 230
113 404 284 532 75 56 160 92 287 122 11 3 81 4 155 2 119 -3 144 -6 210 -31z"/>
<path d="M963 1095 c-68 -34 -105 -90 -111 -167 -6 -73 3 -105 29 -113 56 -18
115 48 139 155 17 74 26 89 63 105 l31 13 -32 16 c-42 22 -59 20 -119 -9z"/>
</g>
</svg>
